{"asset":{"version":"2.0","generator":"Blockbench 4.7.4 glTF exporter"},"scenes":[{"nodes":[21],"name":"blockbench_export"}],"scene":0,"nodes":[{"name":"body-col","mesh":0},{"name":"body","children":[0]},{"translation":[0,0.6875,-3.0140820395097023e-17],"name":"torus","mesh":1},{"name":"spinner","children":[2]},{"rotation":[0.7071067811865475,0,0,0.7071067811865476],"translation":[0,0.0625,-0.875],"name":"cube-col","mesh":2},{"name":"cube-col","mesh":3},{"rotation":[-1,0,0,6.123233995736766e-17],"name":"pyramid-col","mesh":4},{"rotation":[0.25881904510252074,0,0,0.9659258262890683],"name":"leg","children":[4,5,6]},{"name":"cube-col","mesh":5},{"rotation":[0.7071067811865475,0,0,0.7071067811865476],"translation":[0,0.0625,-0.875],"name":"cube-col","mesh":6},{"rotation":[-1,0,0,6.123233995736766e-17],"name":"pyramid-col","mesh":7},{"rotation":[-6.002115106545976e-16,0.9659258262890685,-0.2588190451025199,-2.8760731089296983e-16],"name":"leg2","children":[8,9,10]},{"name":"cube-col","mesh":8},{"rotation":[0.7071067811865475,0,0,0.7071067811865476],"translation":[0,0.0625,-0.875],"name":"cube-col","mesh":9},{"rotation":[-1,0,0,6.123233995736766e-17],"name":"pyramid-col","mesh":10},{"rotation":[0.18301270189222332,-0.6830127018922182,0.18301270189222335,0.6830127018922183],"name":"leg3","children":[12,13,14]},{"name":"cube-col","mesh":11},{"rotation":[0.7071067811865475,0,0,0.7071067811865476],"translation":[0,0.0625,-0.875],"name":"cube-col","mesh":12},{"rotation":[-1,0,0,6.123233995736766e-17],"name":"pyramid-col","mesh":13},{"rotation":[0.18301270189222327,0.6830127018922182,-0.1830127018922233,0.6830127018922183],"name":"leg4","children":[16,17,18]},{"name":"root","children":[1,3,7,11,15,19]},{"children":[20]}],"bufferViews":[{"buffer":0,"byteOffset":0,"byteLength":24192,"target":34962,"byteStride":12},{"buffer":0,"byteOffset":24192,"byteLength":24192,"target":34962,"byteStride":12},{"buffer":0,"byteOffset":48384,"byteLength":16128,"target":34962,"byteStride":8},{"buffer":0,"byteOffset":64512,"byteLength":5832,"target":34963},{"buffer":0,"byteOffset":70344,"byteLength":12288,"target":34962,"byteStride":12},{"buffer":0,"byteOffset":82632,"byteLength":12288,"target":34962,"byteStride":12},{"buffer":0,"byteOffset":94920,"byteLength":8192,"target":34962,"byteStride":8},{"buffer":0,"byteOffset":103112,"byteLength":3072,"target":34963},{"buffer":0,"byteOffset":106184,"byteLength":288,"target":34962,"byteStride":12},{"buffer":0,"byteOffset":106472,"byteLength":288,"target":34962,"byteStride":12},{"buffer":0,"byteOffset":106760,"byteLength":192,"target":34962,"byteStride":8},{"buffer":0,"byteOffset":106952,"byteLength":72,"target":34963},{"buffer":0,"byteOffset":107024,"byteLength":288,"target":34962,"byteStride":12},{"buffer":0,"byteOffset":107312,"byteLength":288,"target":34962,"byteStride":12},{"buffer":0,"byteOffset":107600,"byteLength":192,"target":34962,"byteStride":8},{"buffer":0,"byteOffset":107792,"byteLength":72,"target":34963},{"buffer":0,"byteOffset":107864,"byteLength":192,"target":34962,"byteStride":12},{"buffer":0,"byteOffset":108056,"byteLength":192,"target":34962,"byteStride":12},{"buffer":0,"byteOffset":108248,"byteLength":128,"target":34962,"byteStride":8},{"buffer":0,"byteOffset":108376,"byteLength":36,"target":34963},{"buffer":0,"byteOffset":108412,"byteLength":288,"target":34962,"byteStride":12},{"buffer":0,"byteOffset":108700,"byteLength":288,"target":34962,"byteStride":12},{"buffer":0,"byteOffset":108988,"byteLength":192,"target":34962,"byteStride":8},{"buffer":0,"byteOffset":109180,"byteLength":72,"target":34963},{"buffer":0,"byteOffset":109252,"byteLength":288,"target":34962,"byteStride":12},{"buffer":0,"byteOffset":109540,"byteLength":288,"target":34962,"byteStride":12},{"buffer":0,"byteOffset":109828,"byteLength":192,"target":34962,"byteStride":8},{"buffer":0,"byteOffset":110020,"byteLength":72,"target":34963},{"buffer":0,"byteOffset":110092,"byteLength":192,"target":34962,"byteStride":12},{"buffer":0,"byteOffset":110284,"byteLength":192,"target":34962,"byteStride":12},{"buffer":0,"byteOffset":110476,"byteLength":128,"target":34962,"byteStride":8},{"buffer":0,"byteOffset":110604,"byteLength":36,"target":34963},{"buffer":0,"byteOffset":110640,"byteLength":288,"target":34962,"byteStride":12},{"buffer":0,"byteOffset":110928,"byteLength":288,"target":34962,"byteStride":12},{"buffer":0,"byteOffset":111216,"byteLength":192,"target":34962,"byteStride":8},{"buffer":0,"byteOffset":111408,"byteLength":72,"target":34963},{"buffer":0,"byteOffset":111480,"byteLength":288,"target":34962,"byteStride":12},{"buffer":0,"byteOffset":111768,"byteLength":288,"target":34962,"byteStride":12},{"buffer":0,"byteOffset":112056,"byteLength":192,"target":34962,"byteStride":8},{"buffer":0,"byteOffset":112248,"byteLength":72,"target":34963},{"buffer":0,"byteOffset":112320,"byteLength":192,"target":34962,"byteStride":12},{"buffer":0,"byteOffset":112512,"byteLength":192,"target":34962,"byteStride":12},{"buffer":0,"byteOffset":112704,"byteLength":128,"target":34962,"byteStride":8},{"buffer":0,"byteOffset":112832,"byteLength":36,"target":34963},{"buffer":0,"byteOffset":112868,"byteLength":288,"target":34962,"byteStride":12},{"buffer":0,"byteOffset":113156,"byteLength":288,"target":34962,"byteStride":12},{"buffer":0,"byteOffset":113444,"byteLength":192,"target":34962,"byteStride":8},{"buffer":0,"byteOffset":113636,"byteLength":72,"target":34963},{"buffer":0,"byteOffset":113708,"byteLength":288,"target":34962,"byteStride":12},{"buffer":0,"byteOffset":113996,"byteLength":288,"target":34962,"byteStride":12},{"buffer":0,"byteOffset":114284,"byteLength":192,"target":34962,"byteStride":8},{"buffer":0,"byteOffset":114476,"byteLength":72,"target":34963},{"buffer":0,"byteOffset":114548,"byteLength":192,"target":34962,"byteStride":12},{"buffer":0,"byteOffset":114740,"byteLength":192,"target":34962,"byteStride":12},{"buffer":0,"byteOffset":114932,"byteLength":128,"target":34962,"byteStride":8},{"buffer":0,"byteOffset":115060,"byteLength":36,"target":34963},{"buffer":0,"byteOffset":115096,"byteLength":16},{"buffer":0,"byteOffset":115112,"byteLength":64},{"buffer":0,"byteOffset":115176,"byteLength":16},{"buffer":0,"byteOffset":115192,"byteLength":48},{"buffer":0,"byteOffset":115240,"byteLength":12},{"buffer":0,"byteOffset":115252,"byteLength":48},{"buffer":0,"byteOffset":115300,"byteLength":12},{"buffer":0,"byteOffset":115312,"byteLength":48},{"buffer":0,"byteOffset":115360,"byteLength":12},{"buffer":0,"byteOffset":115372,"byteLength":48},{"buffer":0,"byteOffset":115420,"byteLength":12},{"buffer":0,"byteOffset":115432,"byteLength":48}],"buffers":[{"byteLength":115480,"uri":"data:application/octet-stream;base64,"}],"accessors":[{"bufferView":0,"componentType":5126,"count":2016,"max":[0.5,0.875,0.5],"min":[-0.5,-0.4375,-0.5],"type":"VEC3"},{"bufferView":1,"componentType":5126,"count":2016,"max":[0.9951847195625305,1,0.9951847195625305],"min":[-0.9951847195625305,-1,-0.9951847195625305],"type":"VEC3"},{"bufferView":2,"componentType":5126,"count":2016,"max":[0.890625,0.78125],"min":[0,0],"type":"VEC2"},{"bufferView":3,"componentType":5123,"count":2916,"max":[2015],"min":[0],"type":"SCALAR"},{"bufferView":4,"componentType":5126,"count":1024,"max":[0.46875,0.09420361369848251,0.46875],"min":[-0.46875,-0.09420361369848251,-0.46875],"type":"VEC3"},{"bufferView":5,"componentType":5126,"count":1024,"max":[0.9245301485061646,0.9232239723205566,0.9245301485061646],"min":[-0.9245301485061646,-0.9232239723205566,-0.9245301485061646],"type":"VEC3"},{"bufferView":6,"componentType":5126,"count":1024,"max":[0.6875,0.6875],"min":[0,0],"type":"VEC2"},{"bufferView":7,"componentType":5123,"count":1536,"max":[1023],"min":[0],"type":"SCALAR"},{"bufferView":8,"componentType":5126,"count":24,"max":[0.0625,0.0625,0.875],"min":[-0.0625,-0.0625,-0.0625],"type":"VEC3"},{"bufferView":9,"componentType":5126,"count":24,"max":[1,1,1],"min":[-1,-1,-1],"type":"VEC3"},{"bufferView":10,"componentType":5126,"count":24,"max":[0.96875,1],"min":[0.25,0.1875],"type":"VEC2"},{"bufferView":11,"componentType":5123,"count":36,"max":[23],"min":[0],"type":"SCALAR"},{"bufferView":12,"componentType":5126,"count":24,"max":[0.0625,0.125,0],"min":[-0.0625,0,-0.9375],"type":"VEC3"},{"bufferView":13,"componentType":5126,"count":24,"max":[1,1,1],"min":[-1,-1,-1],"type":"VEC3"},{"bufferView":14,"componentType":5126,"count":24,"max":[0.78125,0.78125],"min":[0,0],"type":"VEC2"},{"bufferView":15,"componentType":5123,"count":36,"max":[23],"min":[0],"type":"SCALAR"},{"bufferView":16,"componentType":5126,"count":16,"max":[0.125,1.3125,1],"min":[-0.125,0.8125,0.75],"type":"VEC3"},{"bufferView":17,"componentType":5126,"count":16,"max":[0.9701424837112427,0.24253562092781067,0.9701424837112427],"min":[-0.9701424837112427,-1,-0.9701424837112427],"type":"VEC3"},{"bufferView":18,"componentType":5126,"count":16,"max":[0.71875,0.5776647329330444],"min":[0.001760922372341156,0],"type":"VEC2"},{"bufferView":19,"componentType":5123,"count":18,"max":[15],"min":[0],"type":"SCALAR"},{"bufferView":20,"componentType":5126,"count":24,"max":[0.0625,0.125,0],"min":[-0.0625,0,-0.9375],"type":"VEC3"},{"bufferView":21,"componentType":5126,"count":24,"max":[1,1,1],"min":[-1,-1,-1],"type":"VEC3"},{"bufferView":22,"componentType":5126,"count":24,"max":[0.78125,0.78125],"min":[0,0],"type":"VEC2"},{"bufferView":23,"componentType":5123,"count":36,"max":[23],"min":[0],"type":"SCALAR"},{"bufferView":24,"componentType":5126,"count":24,"max":[0.0625,0.0625,0.875],"min":[-0.0625,-0.0625,-0.0625],"type":"VEC3"},{"bufferView":25,"componentType":5126,"count":24,"max":[1,1,1],"min":[-1,-1,-1],"type":"VEC3"},{"bufferView":26,"componentType":5126,"count":24,"max":[0.96875,1],"min":[0.25,0.1875],"type":"VEC2"},{"bufferView":27,"componentType":5123,"count":36,"max":[23],"min":[0],"type":"SCALAR"},{"bufferView":28,"componentType":5126,"count":16,"max":[0.125,1.3125,1],"min":[-0.125,0.8125,0.75],"type":"VEC3"},{"bufferView":29,"componentType":5126,"count":16,"max":[0.9701424837112427,0.24253562092781067,0.9701424837112427],"min":[-0.9701424837112427,-1,-0.9701424837112427],"type":"VEC3"},{"bufferView":30,"componentType":5126,"count":16,"max":[0.71875,0.5776647329330444],"min":[0.001760922372341156,0],"type":"VEC2"},{"bufferView":31,"componentType":5123,"count":18,"max":[15],"min":[0],"type":"SCALAR"},{"bufferView":32,"componentType":5126,"count":24,"max":[0.0625,0.125,0],"min":[-0.0625,0,-0.9375],"type":"VEC3"},{"bufferView":33,"componentType":5126,"count":24,"max":[1,1,1],"min":[-1,-1,-1],"type":"VEC3"},{"bufferView":34,"componentType":5126,"count":24,"max":[0.78125,0.78125],"min":[0,0],"type":"VEC2"},{"bufferView":35,"componentType":5123,"count":36,"max":[23],"min":[0],"type":"SCALAR"},{"bufferView":36,"componentType":5126,"count":24,"max":[0.0625,0.0625,0.875],"min":[-0.0625,-0.0625,-0.0625],"type":"VEC3"},{"bufferView":37,"componentType":5126,"count":24,"max":[1,1,1],"min":[-1,-1,-1],"type":"VEC3"},{"bufferView":38,"componentType":5126,"count":24,"max":[0.96875,1],"min":[0.25,0.1875],"type":"VEC2"},{"bufferView":39,"componentType":5123,"count":36,"max":[23],"min":[0],"type":"SCALAR"},{"bufferView":40,"componentType":5126,"count":16,"max":[0.125,1.3125,1],"min":[-0.125,0.8125,0.75],"type":"VEC3"},{"bufferView":41,"componentType":5126,"count":16,"max":[0.9701424837112427,0.24253562092781067,0.9701424837112427],"min":[-0.9701424837112427,-1,-0.9701424837112427],"type":"VEC3"},{"bufferView":42,"componentType":5126,"count":16,"max":[0.71875,0.5776647329330444],"min":[0.001760922372341156,0],"type":"VEC2"},{"bufferView":43,"componentType":5123,"count":18,"max":[15],"min":[0],"type":"SCALAR"},{"bufferView":44,"componentType":5126,"count":24,"max":[0.0625,0.125,0],"min":[-0.0625,0,-0.9375],"type":"VEC3"},{"bufferView":45,"componentType":5126,"count":24,"max":[1,1,1],"min":[-1,-1,-1],"type":"VEC3"},{"bufferView":46,"componentType":5126,"count":24,"max":[0.78125,0.78125],"min":[0,0],"type":"VEC2"},{"bufferView":47,"componentType":5123,"count":36,"max":[23],"min":[0],"type":"SCALAR"},{"bufferView":48,"componentType":5126,"count":24,"max":[0.0625,0.0625,0.875],"min":[-0.0625,-0.0625,-0.0625],"type":"VEC3"},{"bufferView":49,"componentType":5126,"count":24,"max":[1,1,1],"min":[-1,-1,-1],"type":"VEC3"},{"bufferView":50,"componentType":5126,"count":24,"max":[0.96875,1],"min":[0.25,0.1875],"type":"VEC2"},{"bufferView":51,"componentType":5123,"count":36,"max":[23],"min":[0],"type":"SCALAR"},{"bufferView":52,"componentType":5126,"count":16,"max":[0.125,1.3125,1],"min":[-0.125,0.8125,0.75],"type":"VEC3"},{"bufferView":53,"componentType":5126,"count":16,"max":[0.9701424837112427,0.24253562092781067,0.9701424837112427],"min":[-0.9701424837112427,-1,-0.9701424837112427],"type":"VEC3"},{"bufferView":54,"componentType":5126,"count":16,"max":[0.71875,0.5776647329330444],"min":[0.001760922372341156,0],"type":"VEC2"},{"bufferView":55,"componentType":5123,"count":18,"max":[15],"min":[0],"type":"SCALAR"},{"bufferView":56,"componentType":5126,"count":4,"max":[3],"min":[0],"type":"SCALAR"},{"bufferView":57,"componentType":5126,"count":4,"max":[0,0.03387707844376564,0.02181488461792469,0.9997619986534119],"min":[-0.1703115701675415,-0.44228869676589966,-0.19212646782398224,0.8968727588653564],"type":"VEC4"},{"bufferView":58,"componentType":5126,"count":4,"max":[3],"min":[0],"type":"SCALAR"},{"bufferView":59,"componentType":5126,"count":4,"max":[0,0.4375,0],"min":[0,0,0],"type":"VEC3"},{"bufferView":60,"componentType":5126,"count":3,"max":[3],"min":[0],"type":"SCALAR"},{"bufferView":61,"componentType":5126,"count":3,"max":[0.1830127090215683,0.7071067690849304,-4.135580766728708e-15,0.7071067690849304],"min":[4.08006961549745e-15,0.6830127239227295,-0.1830127090215683,0.6830127239227295],"type":"VEC4"},{"bufferView":62,"componentType":5126,"count":3,"max":[3],"min":[0],"type":"SCALAR"},{"bufferView":63,"componentType":5126,"count":3,"max":[0.258819043636322,0,0,1],"min":[0,0,0,0.9659258127212524],"type":"VEC4"},{"bufferView":64,"componentType":5126,"count":3,"max":[3],"min":[0],"type":"SCALAR"},{"bufferView":65,"componentType":5126,"count":3,"max":[-5.053215392444312e-16,1,8.269460903057566e-16,-2.876073108528987e-16],"min":[-6.002115168913375e-16,0.9659258127212524,-0.258819043636322,-4.3315351157519717e-16],"type":"VEC4"},{"bufferView":66,"componentType":5126,"count":3,"max":[3],"min":[0],"type":"SCALAR"},{"bufferView":67,"componentType":5126,"count":3,"max":[0.1830127090215683,-0.6830127239227295,0.1830127090215683,0.7071067690849304],"min":[4.135580766728708e-15,-0.7071067690849304,4.218847493575595e-15,0.6830127239227295],"type":"VEC4"}],"materials":[{"pbrMetallicRoughness":{"metallicFactor":0,"roughnessFactor":1,"baseColorTexture":{"index":0}},"alphaMode":"MASK","alphaCutoff":0.05,"doubleSided":true},{"pbrMetallicRoughness":{"metallicFactor":0,"roughnessFactor":1,"baseColorTexture":{"index":1}},"alphaMode":"MASK","alphaCutoff":0.05,"doubleSided":true},{"pbrMetallicRoughness":{"metallicFactor":0,"roughnessFactor":1,"baseColorTexture":{"index":2}},"alphaMode":"MASK","alphaCutoff":0.05,"doubleSided":true}],"textures":[{"sampler":0,"source":0,"name":"texture_body.png"},{"sampler":1,"source":1,"name":"texture_torus.png"},{"sampler":2,"source":2,"name":"texture_leg.png"}],"samplers":[{"magFilter":9728,"minFilter":9728,"wrapS":33071,"wrapT":33071},{"magFilter":9728,"minFilter":9728,"wrapS":33071,"wrapT":33071},{"magFilter":9728,"minFilter":9728,"wrapS":33071,"wrapT":33071}],"images":[{"mimeType":"image/png","uri":"data:image/png;base64,"},{"mimeType":"image/png","uri":"data:image/png;base64,"},{"mimeType":"image/png","uri":"data:image/png;base64,"}],"meshes":[{"primitives":[{"mode":4,"attributes":{"POSITION":0,"NORMAL":1,"TEXCOORD_0":2},"indices":3,"material":0}]},{"primitives":[{"mode":4,"attributes":{"POSITION":4,"NORMAL":5,"TEXCOORD_0":6},"indices":7,"material":1}]},{"primitives":[{"mode":4,"attributes":{"POSITION":8,"NORMAL":9,"TEXCOORD_0":10},"indices":11,"material":2}]},{"primitives":[{"mode":4,"attributes":{"POSITION":12,"NORMAL":13,"TEXCOORD_0":14},"indices":15,"material":2}]},{"primitives":[{"mode":4,"attributes":{"POSITION":16,"NORMAL":17,"TEXCOORD_0":18},"indices":19,"material":2}]},{"primitives":[{"mode":4,"attributes":{"POSITION":20,"NORMAL":21,"TEXCOORD_0":22},"indices":23,"material":2}]},{"primitives":[{"mode":4,"attributes":{"POSITION":24,"NORMAL":25,"TEXCOORD_0":26},"indices":27,"material":2}]},{"primitives":[{"mode":4,"attributes":{"POSITION":28,"NORMAL":29,"TEXCOORD_0":30},"indices":31,"material":2}]},{"primitives":[{"mode":4,"attributes":{"POSITION":32,"NORMAL":33,"TEXCOORD_0":34},"indices":35,"material":2}]},{"primitives":[{"mode":4,"attributes":{"POSITION":36,"NORMAL":37,"TEXCOORD_0":38},"indices":39,"material":2}]},{"primitives":[{"mode":4,"attributes":{"POSITION":40,"NORMAL":41,"TEXCOORD_0":42},"indices":43,"material":2}]},{"primitives":[{"mode":4,"attributes":{"POSITION":44,"NORMAL":45,"TEXCOORD_0":46},"indices":47,"material":2}]},{"primitives":[{"mode":4,"attributes":{"POSITION":48,"NORMAL":49,"TEXCOORD_0":50},"indices":51,"material":2}]},{"primitives":[{"mode":4,"attributes":{"POSITION":52,"NORMAL":53,"TEXCOORD_0":54},"indices":55,"material":2}]}],"animations":[{"name":"animation.model.spin","samplers":[{"input":56,"output":57,"interpolation":"LINEAR"},{"input":58,"output":59,"interpolation":"LINEAR"},{"input":60,"output":61,"interpolation":"LINEAR"},{"input":62,"output":63,"interpolation":"LINEAR"},{"input":64,"output":65,"interpolation":"LINEAR"},{"input":66,"output":67,"interpolation":"LINEAR"}],"channels":[{"sampler":0,"target":{"node":3,"path":"rotation"}},{"sampler":1,"target":{"node":3,"path":"translation"}},{"sampler":2,"target":{"node":19,"path":"rotation"}},{"sampler":3,"target":{"node":7,"path":"rotation"}},{"sampler":4,"target":{"node":11,"path":"rotation"}},{"sampler":5,"target":{"node":15,"path":"rotation"}}]}]}