{"asset":{"version":"2.0","generator":"Blockbench 4.7.4 glTF exporter"},"scenes":[{"nodes":[16],"name":"blockbench_export"}],"scene":0,"nodes":[{"name":"cuboid","mesh":0},{"rotation":[0.4999999999999996,-0.4999999999999994,0.5000000000000003,0.5000000000000007],"name":"pyramid","mesh":1},{"rotation":[0.4999999999999996,0.4999999999999994,-0.5000000000000003,0.5000000000000007],"name":"pyramid","mesh":2},{"name":"sphere","mesh":3},{"name":"torus","mesh":4},{"name":"head","children":[3,4]},{"name":"cuboid","mesh":5},{"rotation":[0,0,-0.7071067811865475,0.7071067811865476],"name":"cuboid","mesh":6},{"rotation":[-1,0,0,6.123233995736766e-17],"name":"pyramid","mesh":7},{"translation":[0.5,0,0],"name":"leg_left","children":[6,7,8]},{"name":"cuboid","mesh":8},{"rotation":[0,0,-0.7071067811865475,0.7071067811865476],"name":"cuboid","mesh":9},{"rotation":[-1,0,0,6.123233995736766e-17],"name":"pyramid","mesh":10},{"rotation":[0,-1,0,6.123233995736766e-17],"translation":[-0.5,0,0],"name":"leg_right","children":[10,11,12]},{"name":"legs","children":[9,13]},{"name":"body","children":[0,1,2,5,14]},{"children":[15]}],"bufferViews":[{"buffer":0,"byteOffset":0,"byteLength":288,"target":34962,"byteStride":12},{"buffer":0,"byteOffset":288,"byteLength":288,"target":34962,"byteStride":12},{"buffer":0,"byteOffset":576,"byteLength":192,"target":34962,"byteStride":8},{"buffer":0,"byteOffset":768,"byteLength":72,"target":34963},{"buffer":0,"byteOffset":840,"byteLength":192,"target":34962,"byteStride":12},{"buffer":0,"byteOffset":1032,"byteLength":192,"target":34962,"byteStride":12},{"buffer":0,"byteOffset":1224,"byteLength":128,"target":34962,"byteStride":8},{"buffer":0,"byteOffset":1352,"byteLength":36,"target":34963},{"buffer":0,"byteOffset":1388,"byteLength":192,"target":34962,"byteStride":12},{"buffer":0,"byteOffset":1580,"byteLength":192,"target":34962,"byteStride":12},{"buffer":0,"byteOffset":1772,"byteLength":128,"target":34962,"byteStride":8},{"buffer":0,"byteOffset":1900,"byteLength":36,"target":34963},{"buffer":0,"byteOffset":1936,"byteLength":3168,"target":34962,"byteStride":12},{"buffer":0,"byteOffset":5104,"byteLength":3168,"target":34962,"byteStride":12},{"buffer":0,"byteOffset":8272,"byteLength":2112,"target":34962,"byteStride":8},{"buffer":0,"byteOffset":10384,"byteLength":720,"target":34963},{"buffer":0,"byteOffset":11104,"byteLength":7680,"target":34962,"byteStride":12},{"buffer":0,"byteOffset":18784,"byteLength":7680,"target":34962,"byteStride":12},{"buffer":0,"byteOffset":26464,"byteLength":5120,"target":34962,"byteStride":8},{"buffer":0,"byteOffset":31584,"byteLength":1920,"target":34963},{"buffer":0,"byteOffset":33504,"byteLength":288,"target":34962,"byteStride":12},{"buffer":0,"byteOffset":33792,"byteLength":288,"target":34962,"byteStride":12},{"buffer":0,"byteOffset":34080,"byteLength":192,"target":34962,"byteStride":8},{"buffer":0,"byteOffset":34272,"byteLength":72,"target":34963},{"buffer":0,"byteOffset":34344,"byteLength":288,"target":34962,"byteStride":12},{"buffer":0,"byteOffset":34632,"byteLength":288,"target":34962,"byteStride":12},{"buffer":0,"byteOffset":34920,"byteLength":192,"target":34962,"byteStride":8},{"buffer":0,"byteOffset":35112,"byteLength":72,"target":34963},{"buffer":0,"byteOffset":35184,"byteLength":192,"target":34962,"byteStride":12},{"buffer":0,"byteOffset":35376,"byteLength":192,"target":34962,"byteStride":12},{"buffer":0,"byteOffset":35568,"byteLength":128,"target":34962,"byteStride":8},{"buffer":0,"byteOffset":35696,"byteLength":36,"target":34963},{"buffer":0,"byteOffset":35732,"byteLength":288,"target":34962,"byteStride":12},{"buffer":0,"byteOffset":36020,"byteLength":288,"target":34962,"byteStride":12},{"buffer":0,"byteOffset":36308,"byteLength":192,"target":34962,"byteStride":8},{"buffer":0,"byteOffset":36500,"byteLength":72,"target":34963},{"buffer":0,"byteOffset":36572,"byteLength":288,"target":34962,"byteStride":12},{"buffer":0,"byteOffset":36860,"byteLength":288,"target":34962,"byteStride":12},{"buffer":0,"byteOffset":37148,"byteLength":192,"target":34962,"byteStride":8},{"buffer":0,"byteOffset":37340,"byteLength":72,"target":34963},{"buffer":0,"byteOffset":37412,"byteLength":192,"target":34962,"byteStride":12},{"buffer":0,"byteOffset":37604,"byteLength":192,"target":34962,"byteStride":12},{"buffer":0,"byteOffset":37796,"byteLength":128,"target":34962,"byteStride":8},{"buffer":0,"byteOffset":37924,"byteLength":36,"target":34963}],"buffers":[{"byteLength":37960,"uri":"data:application/octet-stream;base64,"}],"accessors":[{"bufferView":0,"componentType":5126,"count":24,"max":[0.1875,0.625,0.25],"min":[-0.1875,0,-0.25],"type":"VEC3"},{"bufferView":1,"componentType":5126,"count":24,"max":[1,1,1],"min":[-1,-1,-1],"type":"VEC3"},{"bufferView":2,"componentType":5126,"count":24,"max":[0.375,0.453125],"min":[0,0],"type":"VEC2"},{"bufferView":3,"componentType":5123,"count":36,"max":[23],"min":[0],"type":"SCALAR"},{"bufferView":4,"componentType":5126,"count":16,"max":[0.1875,0.5,0],"min":[-0.1875,0.1875,-0.375],"type":"VEC3"},{"bufferView":5,"componentType":5126,"count":16,"max":[0.8574929237365723,0.5144957304000854,0.8574929237365723],"min":[-0.8574929237365723,-1,-0.8574929237365723],"type":"VEC3"},{"bufferView":6,"componentType":5126,"count":16,"max":[0.557306706905365,0.5868342518806458],"min":[0.0051932730711996555,0.109375],"type":"VEC2"},{"bufferView":7,"componentType":5123,"count":18,"max":[15],"min":[0],"type":"SCALAR"},{"bufferView":8,"componentType":5126,"count":16,"max":[0.1875,0.5,0],"min":[-0.1875,0.1875,-0.375],"type":"VEC3"},{"bufferView":9,"componentType":5126,"count":16,"max":[0.8574929237365723,0.5144957304000854,0.8574929237365723],"min":[-0.8574929237365723,-1,-0.8574929237365723],"type":"VEC3"},{"bufferView":10,"componentType":5126,"count":16,"max":[0.604181706905365,0.5399606227874756],"min":[0.16144312918186188,0],"type":"VEC2"},{"bufferView":11,"componentType":5123,"count":18,"max":[15],"min":[0],"type":"SCALAR"},{"bufferView":12,"componentType":5126,"count":264,"max":[0.1875,0.9375,0.1875],"min":[-0.1875,0.5625,-0.1875],"type":"VEC3"},{"bufferView":13,"componentType":5126,"count":264,"max":[0.9659258127212524,0.9659258127212524,0.9659258127212524],"min":[-0.9659258127212524,-0.9659258127212524,-0.9659258127212524],"type":"VEC3"},{"bufferView":14,"componentType":5126,"count":264,"max":[0.6798691749572754,0.6597389578819275],"min":[0.00775566603988409,0.125],"type":"VEC2"},{"bufferView":15,"componentType":5123,"count":360,"max":[263],"min":[0],"type":"SCALAR"},{"bufferView":16,"componentType":5126,"count":640,"max":[0.25,1.0632790327072144,0.25],"min":[-0.25,0.9367209076881409,-0.25],"type":"VEC3"},{"bufferView":17,"componentType":5126,"count":640,"max":[0.925539493560791,0.9221871495246887,0.925539493560791],"min":[-0.925539493560791,-0.9221871495246887,-0.925539493560791],"type":"VEC3"},{"bufferView":18,"componentType":5126,"count":640,"max":[0.8065968751907349,0.765625],"min":[0.0032806878443807364,0],"type":"VEC2"},{"bufferView":19,"componentType":5123,"count":960,"max":[639],"min":[0],"type":"SCALAR"},{"bufferView":20,"componentType":5126,"count":24,"max":[0.1875,0.1875,0.0625],"min":[-0.1875,0.125,-0.0625],"type":"VEC3"},{"bufferView":21,"componentType":5126,"count":24,"max":[1,1,1],"min":[-1,-1,-1],"type":"VEC3"},{"bufferView":22,"componentType":5126,"count":24,"max":[0.75,0.71875],"min":[0.046875,0.09375],"type":"VEC2"},{"bufferView":23,"componentType":5123,"count":36,"max":[23],"min":[0],"type":"SCALAR"},{"bufferView":24,"componentType":5126,"count":24,"max":[0.1875,0.1875,0.0625],"min":[-0.1875,0.125,-0.0625],"type":"VEC3"},{"bufferView":25,"componentType":5126,"count":24,"max":[1,1,1],"min":[-1,-1,-1],"type":"VEC3"},{"bufferView":26,"componentType":5126,"count":24,"max":[0.796875,0.59375],"min":[0.109375,0.140625],"type":"VEC2"},{"bufferView":27,"componentType":5123,"count":36,"max":[23],"min":[0],"type":"SCALAR"},{"bufferView":28,"componentType":5126,"count":16,"max":[0.21875,0.4375,0.09375],"min":[0.03125,0.1875,-0.09375],"type":"VEC3"},{"bufferView":29,"componentType":5126,"count":16,"max":[0.936329185962677,0.3511234521865845,0.936329185962677],"min":[-0.936329185962677,-1,-0.936329185962677],"type":"VEC3"},{"bufferView":30,"componentType":5126,"count":16,"max":[0.6705514192581177,0.6801201701164246],"min":[0.22007352113723755,0],"type":"VEC2"},{"bufferView":31,"componentType":5123,"count":18,"max":[15],"min":[0],"type":"SCALAR"},{"bufferView":32,"componentType":5126,"count":24,"max":[0.1875,0.1875,0.0625],"min":[-0.1875,0.125,-0.0625],"type":"VEC3"},{"bufferView":33,"componentType":5126,"count":24,"max":[1,1,1],"min":[-1,-1,-1],"type":"VEC3"},{"bufferView":34,"componentType":5126,"count":24,"max":[0.765625,0.734375],"min":[0.125,0.234375],"type":"VEC2"},{"bufferView":35,"componentType":5123,"count":36,"max":[23],"min":[0],"type":"SCALAR"},{"bufferView":36,"componentType":5126,"count":24,"max":[0.1875,0.1875,0.0625],"min":[-0.1875,0.125,-0.0625],"type":"VEC3"},{"bufferView":37,"componentType":5126,"count":24,"max":[1,1,1],"min":[-1,-1,-1],"type":"VEC3"},{"bufferView":38,"componentType":5126,"count":24,"max":[0.8125,0.75],"min":[0.078125,0.328125],"type":"VEC2"},{"bufferView":39,"componentType":5123,"count":36,"max":[23],"min":[0],"type":"SCALAR"},{"bufferView":40,"componentType":5126,"count":16,"max":[0.21875,0.4375,0.09375],"min":[0.03125,0.1875,-0.09375],"type":"VEC3"},{"bufferView":41,"componentType":5126,"count":16,"max":[0.936329185962677,0.3511234521865845,0.936329185962677],"min":[-0.936329185962677,-1,-0.936329185962677],"type":"VEC3"},{"bufferView":42,"componentType":5126,"count":16,"max":[0.6549264788627625,0.6957451701164246],"min":[0.109375,0.21875],"type":"VEC2"},{"bufferView":43,"componentType":5123,"count":18,"max":[15],"min":[0],"type":"SCALAR"}],"materials":[{"pbrMetallicRoughness":{"metallicFactor":0,"roughnessFactor":1,"baseColorTexture":{"index":0}},"alphaMode":"MASK","alphaCutoff":0.05,"doubleSided":true}],"textures":[{"sampler":0,"source":0,"name":"texture_entire"}],"samplers":[{"magFilter":9728,"minFilter":9728,"wrapS":33071,"wrapT":33071}],"images":[{"mimeType":"image/png","uri":"data:image/png;base64,"}],"meshes":[{"primitives":[{"mode":4,"attributes":{"POSITION":0,"NORMAL":1,"TEXCOORD_0":2},"indices":3,"material":0}]},{"primitives":[{"mode":4,"attributes":{"POSITION":4,"NORMAL":5,"TEXCOORD_0":6},"indices":7,"material":0}]},{"primitives":[{"mode":4,"attributes":{"POSITION":8,"NORMAL":9,"TEXCOORD_0":10},"indices":11,"material":0}]},{"primitives":[{"mode":4,"attributes":{"POSITION":12,"NORMAL":13,"TEXCOORD_0":14},"indices":15,"material":0}]},{"primitives":[{"mode":4,"attributes":{"POSITION":16,"NORMAL":17,"TEXCOORD_0":18},"indices":19,"material":0}]},{"primitives":[{"mode":4,"attributes":{"POSITION":20,"NORMAL":21,"TEXCOORD_0":22},"indices":23,"material":0}]},{"primitives":[{"mode":4,"attributes":{"POSITION":24,"NORMAL":25,"TEXCOORD_0":26},"indices":27,"material":0}]},{"primitives":[{"mode":4,"attributes":{"POSITION":28,"NORMAL":29,"TEXCOORD_0":30},"indices":31,"material":0}]},{"primitives":[{"mode":4,"attributes":{"POSITION":32,"NORMAL":33,"TEXCOORD_0":34},"indices":35,"material":0}]},{"primitives":[{"mode":4,"attributes":{"POSITION":36,"NORMAL":37,"TEXCOORD_0":38},"indices":39,"material":0}]},{"primitives":[{"mode":4,"attributes":{"POSITION":40,"NORMAL":41,"TEXCOORD_0":42},"indices":43,"material":0}]}]}