{"asset":{"version":"2.0","generator":"Blockbench 4.7.4 glTF exporter"},"scenes":[{"nodes":[15],"name":"blockbench_export"}],"scene":0,"nodes":[{"name":"bone"},{"name":"cuboid","mesh":0},{"name":"cylinder","mesh":1},{"name":"cylinder","mesh":2},{"name":"skateboard","children":[0,1,2,3]},{"name":"cuboid","mesh":3},{"name":"cuboid","mesh":4},{"rotation":[0,0,0.7071067811865475,0.7071067811865476],"name":"cylinder","mesh":5},{"rotation":[0,0,0.7071067811865475,0.7071067811865476],"name":"cylinder","mesh":6},{"name":"wheel_assembly","children":[5,6,7,8]},{"name":"cuboid","mesh":7},{"name":"cuboid","mesh":8},{"rotation":[0,0,0.7071067811865475,0.7071067811865476],"name":"cylinder","mesh":9},{"rotation":[0,0,0.7071067811865475,0.7071067811865476],"name":"cylinder","mesh":10},{"translation":[0,0,-0.875],"name":"wheel_assembly2","children":[10,11,12,13]},{"children":[4,9,14]}],"bufferViews":[{"buffer":0,"byteOffset":0,"byteLength":288,"target":34962,"byteStride":12},{"buffer":0,"byteOffset":288,"byteLength":288,"target":34962,"byteStride":12},{"buffer":0,"byteOffset":576,"byteLength":192,"target":34962,"byteStride":8},{"buffer":0,"byteOffset":768,"byteLength":72,"target":34963},{"buffer":0,"byteOffset":840,"byteLength":1440,"target":34962,"byteStride":12},{"buffer":0,"byteOffset":2280,"byteLength":1440,"target":34962,"byteStride":12},{"buffer":0,"byteOffset":3720,"byteLength":960,"target":34962,"byteStride":8},{"buffer":0,"byteOffset":4680,"byteLength":288,"target":34963},{"buffer":0,"byteOffset":4968,"byteLength":1440,"target":34962,"byteStride":12},{"buffer":0,"byteOffset":6408,"byteLength":1440,"target":34962,"byteStride":12},{"buffer":0,"byteOffset":7848,"byteLength":960,"target":34962,"byteStride":8},{"buffer":0,"byteOffset":8808,"byteLength":288,"target":34963},{"buffer":0,"byteOffset":9096,"byteLength":288,"target":34962,"byteStride":12},{"buffer":0,"byteOffset":9384,"byteLength":288,"target":34962,"byteStride":12},{"buffer":0,"byteOffset":9672,"byteLength":192,"target":34962,"byteStride":8},{"buffer":0,"byteOffset":9864,"byteLength":72,"target":34963},{"buffer":0,"byteOffset":9936,"byteLength":288,"target":34962,"byteStride":12},{"buffer":0,"byteOffset":10224,"byteLength":288,"target":34962,"byteStride":12},{"buffer":0,"byteOffset":10512,"byteLength":192,"target":34962,"byteStride":8},{"buffer":0,"byteOffset":10704,"byteLength":72,"target":34963},{"buffer":0,"byteOffset":10776,"byteLength":2400,"target":34962,"byteStride":12},{"buffer":0,"byteOffset":13176,"byteLength":2400,"target":34962,"byteStride":12},{"buffer":0,"byteOffset":15576,"byteLength":1600,"target":34962,"byteStride":8},{"buffer":0,"byteOffset":17176,"byteLength":480,"target":34963},{"buffer":0,"byteOffset":17656,"byteLength":2400,"target":34962,"byteStride":12},{"buffer":0,"byteOffset":20056,"byteLength":2400,"target":34962,"byteStride":12},{"buffer":0,"byteOffset":22456,"byteLength":1600,"target":34962,"byteStride":8},{"buffer":0,"byteOffset":24056,"byteLength":480,"target":34963},{"buffer":0,"byteOffset":24536,"byteLength":288,"target":34962,"byteStride":12},{"buffer":0,"byteOffset":24824,"byteLength":288,"target":34962,"byteStride":12},{"buffer":0,"byteOffset":25112,"byteLength":192,"target":34962,"byteStride":8},{"buffer":0,"byteOffset":25304,"byteLength":72,"target":34963},{"buffer":0,"byteOffset":25376,"byteLength":288,"target":34962,"byteStride":12},{"buffer":0,"byteOffset":25664,"byteLength":288,"target":34962,"byteStride":12},{"buffer":0,"byteOffset":25952,"byteLength":192,"target":34962,"byteStride":8},{"buffer":0,"byteOffset":26144,"byteLength":72,"target":34963},{"buffer":0,"byteOffset":26216,"byteLength":2400,"target":34962,"byteStride":12},{"buffer":0,"byteOffset":28616,"byteLength":2400,"target":34962,"byteStride":12},{"buffer":0,"byteOffset":31016,"byteLength":1600,"target":34962,"byteStride":8},{"buffer":0,"byteOffset":32616,"byteLength":480,"target":34963},{"buffer":0,"byteOffset":33096,"byteLength":2400,"target":34962,"byteStride":12},{"buffer":0,"byteOffset":35496,"byteLength":2400,"target":34962,"byteStride":12},{"buffer":0,"byteOffset":37896,"byteLength":1600,"target":34962,"byteStride":8},{"buffer":0,"byteOffset":39496,"byteLength":480,"target":34963}],"buffers":[{"byteLength":39976,"uri":"data:application/octet-stream;base64,"}],"accessors":[{"bufferView":0,"componentType":5126,"count":24,"max":[0.1875,0.0625,0.5],"min":[-0.1875,0,-0.5],"type":"VEC3"},{"bufferView":1,"componentType":5126,"count":24,"max":[1,1,1],"min":[-1,-1,-1],"type":"VEC3"},{"bufferView":2,"componentType":5126,"count":24,"max":[0.5,0.453125],"min":[0,0],"type":"VEC2"},{"bufferView":3,"componentType":5123,"count":36,"max":[23],"min":[0],"type":"SCALAR"},{"bufferView":4,"componentType":5126,"count":120,"max":[0.1875,0.0625,-0.25],"min":[-0.1875,0,-0.75],"type":"VEC3"},{"bufferView":5,"componentType":5126,"count":120,"max":[1,1,1],"min":[-1,-1,-1],"type":"VEC3"},{"bufferView":6,"componentType":5126,"count":120,"max":[0.515625,0.515625],"min":[0,0],"type":"VEC2"},{"bufferView":7,"componentType":5123,"count":144,"max":[119],"min":[0],"type":"SCALAR"},{"bufferView":8,"componentType":5126,"count":120,"max":[0.1875,0.0625,0.75],"min":[-0.1875,0,0.25],"type":"VEC3"},{"bufferView":9,"componentType":5126,"count":120,"max":[1,1,1],"min":[-1,-1,-1],"type":"VEC3"},{"bufferView":10,"componentType":5126,"count":120,"max":[0.5092921853065491,0.515625],"min":[0,0.265625],"type":"VEC2"},{"bufferView":11,"componentType":5123,"count":144,"max":[119],"min":[0],"type":"SCALAR"},{"bufferView":12,"componentType":5126,"count":24,"max":[0.03125,0,0.46875],"min":[-0.03125,-0.125,0.40625],"type":"VEC3"},{"bufferView":13,"componentType":5126,"count":24,"max":[1,1,1],"min":[-1,-1,-1],"type":"VEC3"},{"bufferView":14,"componentType":5126,"count":24,"max":[0.53125,0.53125],"min":[0.328125,0.09375],"type":"VEC2"},{"bufferView":15,"componentType":5123,"count":36,"max":[23],"min":[0],"type":"SCALAR"},{"bufferView":16,"componentType":5126,"count":24,"max":[0.21875,-0.0625,0.46875],"min":[-0.21875,-0.125,0.40625],"type":"VEC3"},{"bufferView":17,"componentType":5126,"count":24,"max":[1,1,1],"min":[-1,-1,-1],"type":"VEC3"},{"bufferView":18,"componentType":5126,"count":24,"max":[0.53125,0.265625],"min":[0.328125,0.0625],"type":"VEC2"},{"bufferView":19,"componentType":5123,"count":36,"max":[23],"min":[0],"type":"SCALAR"},{"bufferView":20,"componentType":5126,"count":200,"max":[0,-0.1875,0.53125],"min":[-0.1875,-0.25,0.34375],"type":"VEC3"},{"bufferView":21,"componentType":5126,"count":200,"max":[1,1,1],"min":[-1,-1,-1],"type":"VEC3"},{"bufferView":22,"componentType":5126,"count":200,"max":[0.4951234459877014,0.484375],"min":[0.0048765623942017555,0],"type":"VEC2"},{"bufferView":23,"componentType":5123,"count":240,"max":[199],"min":[0],"type":"SCALAR"},{"bufferView":24,"componentType":5126,"count":200,"max":[0,0.25,0.53125],"min":[-0.1875,0.1875,0.34375],"type":"VEC3"},{"bufferView":25,"componentType":5126,"count":200,"max":[1,1,1],"min":[-1,-1,-1],"type":"VEC3"},{"bufferView":26,"componentType":5126,"count":200,"max":[0.4638734459877014,0.484375],"min":[0.06737656146287918,0.125],"type":"VEC2"},{"bufferView":27,"componentType":5123,"count":240,"max":[199],"min":[0],"type":"SCALAR"},{"bufferView":28,"componentType":5126,"count":24,"max":[0.03125,0,0.46875],"min":[-0.03125,-0.125,0.40625],"type":"VEC3"},{"bufferView":29,"componentType":5126,"count":24,"max":[1,1,1],"min":[-1,-1,-1],"type":"VEC3"},{"bufferView":30,"componentType":5126,"count":24,"max":[0.53125,0.53125],"min":[0.453125,0],"type":"VEC2"},{"bufferView":31,"componentType":5123,"count":36,"max":[23],"min":[0],"type":"SCALAR"},{"bufferView":32,"componentType":5126,"count":24,"max":[0.21875,-0.0625,0.46875],"min":[-0.21875,-0.125,0.40625],"type":"VEC3"},{"bufferView":33,"componentType":5126,"count":24,"max":[1,1,1],"min":[-1,-1,-1],"type":"VEC3"},{"bufferView":34,"componentType":5126,"count":24,"max":[0.53125,0.421875],"min":[0,0.15625],"type":"VEC2"},{"bufferView":35,"componentType":5123,"count":36,"max":[23],"min":[0],"type":"SCALAR"},{"bufferView":36,"componentType":5126,"count":200,"max":[0,-0.1875,0.53125],"min":[-0.1875,-0.25,0.34375],"type":"VEC3"},{"bufferView":37,"componentType":5126,"count":200,"max":[1,1,1],"min":[-1,-1,-1],"type":"VEC3"},{"bufferView":38,"componentType":5126,"count":200,"max":[0.4951234459877014,0.484375],"min":[0.19237656891345978,0],"type":"VEC2"},{"bufferView":39,"componentType":5123,"count":240,"max":[199],"min":[0],"type":"SCALAR"},{"bufferView":40,"componentType":5126,"count":200,"max":[0,0.25,0.53125],"min":[-0.1875,0.1875,0.34375],"type":"VEC3"},{"bufferView":41,"componentType":5126,"count":200,"max":[1,1,1],"min":[-1,-1,-1],"type":"VEC3"},{"bufferView":42,"componentType":5126,"count":200,"max":[0.4951234459877014,0.484375],"min":[0.3017515540122986,0],"type":"VEC2"},{"bufferView":43,"componentType":5123,"count":240,"max":[199],"min":[0],"type":"SCALAR"}],"materials":[{"pbrMetallicRoughness":{"metallicFactor":0,"roughnessFactor":1,"baseColorTexture":{"index":0}},"alphaMode":"MASK","alphaCutoff":0.05,"doubleSided":true}],"textures":[{"sampler":0,"source":0,"name":"texture_BOARD"}],"samplers":[{"magFilter":9728,"minFilter":9728,"wrapS":33071,"wrapT":33071}],"images":[{"mimeType":"image/png","uri":"data:image/png;base64,"}],"meshes":[{"primitives":[{"mode":4,"attributes":{"POSITION":0,"NORMAL":1,"TEXCOORD_0":2},"indices":3,"material":0}]},{"primitives":[{"mode":4,"attributes":{"POSITION":4,"NORMAL":5,"TEXCOORD_0":6},"indices":7,"material":0}]},{"primitives":[{"mode":4,"attributes":{"POSITION":8,"NORMAL":9,"TEXCOORD_0":10},"indices":11,"material":0}]},{"primitives":[{"mode":4,"attributes":{"POSITION":12,"NORMAL":13,"TEXCOORD_0":14},"indices":15,"material":0}]},{"primitives":[{"mode":4,"attributes":{"POSITION":16,"NORMAL":17,"TEXCOORD_0":18},"indices":19,"material":0}]},{"primitives":[{"mode":4,"attributes":{"POSITION":20,"NORMAL":21,"TEXCOORD_0":22},"indices":23,"material":0}]},{"primitives":[{"mode":4,"attributes":{"POSITION":24,"NORMAL":25,"TEXCOORD_0":26},"indices":27,"material":0}]},{"primitives":[{"mode":4,"attributes":{"POSITION":28,"NORMAL":29,"TEXCOORD_0":30},"indices":31,"material":0}]},{"primitives":[{"mode":4,"attributes":{"POSITION":32,"NORMAL":33,"TEXCOORD_0":34},"indices":35,"material":0}]},{"primitives":[{"mode":4,"attributes":{"POSITION":36,"NORMAL":37,"TEXCOORD_0":38},"indices":39,"material":0}]},{"primitives":[{"mode":4,"attributes":{"POSITION":40,"NORMAL":41,"TEXCOORD_0":42},"indices":43,"material":0}]}]}