{"asset":{"version":"2.0","generator":"Blockbench 4.7.4 glTF exporter"},"scenes":[{"nodes":[12],"name":"blockbench_export"}],"scene":0,"nodes":[{"name":"cuboid","mesh":0},{"name":"cuboid","mesh":1},{"name":"cuboid","mesh":2},{"rotation":[0,-1,0,6.123233995736766e-17],"name":"cuboid","mesh":3},{"rotation":[0,0,0.7071067811865475,0.7071067811865476],"name":"cylinder","mesh":4},{"rotation":[0,0,0.7071067811865475,0.7071067811865476],"name":"cylinder","mesh":5},{"name":"rear","children":[4,5]},{"rotation":[0,0,0.7071067811865475,0.7071067811865476],"name":"cylinder","mesh":6},{"rotation":[0,0,0.7071067811865475,0.7071067811865476],"name":"cylinder","mesh":7},{"translation":[0,0,-0.625],"name":"front","children":[7,8]},{"name":"wheels","children":[6,9]},{"name":"carbody","children":[0,1,2,3,10]},{"children":[11]}],"bufferViews":[{"buffer":0,"byteOffset":0,"byteLength":288,"target":34962,"byteStride":12},{"buffer":0,"byteOffset":288,"byteLength":288,"target":34962,"byteStride":12},{"buffer":0,"byteOffset":576,"byteLength":192,"target":34962,"byteStride":8},{"buffer":0,"byteOffset":768,"byteLength":72,"target":34963},{"buffer":0,"byteOffset":840,"byteLength":288,"target":34962,"byteStride":12},{"buffer":0,"byteOffset":1128,"byteLength":288,"target":34962,"byteStride":12},{"buffer":0,"byteOffset":1416,"byteLength":192,"target":34962,"byteStride":8},{"buffer":0,"byteOffset":1608,"byteLength":72,"target":34963},{"buffer":0,"byteOffset":1680,"byteLength":216,"target":34962,"byteStride":12},{"buffer":0,"byteOffset":1896,"byteLength":216,"target":34962,"byteStride":12},{"buffer":0,"byteOffset":2112,"byteLength":144,"target":34962,"byteStride":8},{"buffer":0,"byteOffset":2256,"byteLength":48,"target":34963},{"buffer":0,"byteOffset":2304,"byteLength":216,"target":34962,"byteStride":12},{"buffer":0,"byteOffset":2520,"byteLength":216,"target":34962,"byteStride":12},{"buffer":0,"byteOffset":2736,"byteLength":144,"target":34962,"byteStride":8},{"buffer":0,"byteOffset":2880,"byteLength":48,"target":34963},{"buffer":0,"byteOffset":2928,"byteLength":2400,"target":34962,"byteStride":12},{"buffer":0,"byteOffset":5328,"byteLength":2400,"target":34962,"byteStride":12},{"buffer":0,"byteOffset":7728,"byteLength":1600,"target":34962,"byteStride":8},{"buffer":0,"byteOffset":9328,"byteLength":480,"target":34963},{"buffer":0,"byteOffset":9808,"byteLength":2400,"target":34962,"byteStride":12},{"buffer":0,"byteOffset":12208,"byteLength":2400,"target":34962,"byteStride":12},{"buffer":0,"byteOffset":14608,"byteLength":1600,"target":34962,"byteStride":8},{"buffer":0,"byteOffset":16208,"byteLength":480,"target":34963},{"buffer":0,"byteOffset":16688,"byteLength":2400,"target":34962,"byteStride":12},{"buffer":0,"byteOffset":19088,"byteLength":2400,"target":34962,"byteStride":12},{"buffer":0,"byteOffset":21488,"byteLength":1600,"target":34962,"byteStride":8},{"buffer":0,"byteOffset":23088,"byteLength":480,"target":34963},{"buffer":0,"byteOffset":23568,"byteLength":2400,"target":34962,"byteStride":12},{"buffer":0,"byteOffset":25968,"byteLength":2400,"target":34962,"byteStride":12},{"buffer":0,"byteOffset":28368,"byteLength":1600,"target":34962,"byteStride":8},{"buffer":0,"byteOffset":29968,"byteLength":480,"target":34963}],"buffers":[{"byteLength":30448,"uri":"data:application/octet-stream;base64,"}],"accessors":[{"bufferView":0,"componentType":5126,"count":24,"max":[0.203125,0.1875,0.5],"min":[-0.203125,0,-0.5],"type":"VEC3"},{"bufferView":1,"componentType":5126,"count":24,"max":[1,1,1],"min":[-1,-1,-1],"type":"VEC3"},{"bufferView":2,"componentType":5126,"count":24,"max":[0.5,0.390625],"min":[0,0],"type":"VEC2"},{"bufferView":3,"componentType":5123,"count":36,"max":[23],"min":[0],"type":"SCALAR"},{"bufferView":4,"componentType":5126,"count":24,"max":[0.1875,0.375,0.3125],"min":[-0.1875,0.1875,-0.0625],"type":"VEC3"},{"bufferView":5,"componentType":5126,"count":24,"max":[1,1,1],"min":[-1,-1,-1],"type":"VEC3"},{"bufferView":6,"componentType":5126,"count":24,"max":[0.453125,0.453125],"min":[0,0.125],"type":"VEC2"},{"bufferView":7,"componentType":5123,"count":36,"max":[23],"min":[0],"type":"SCALAR"},{"bufferView":8,"componentType":5126,"count":18,"max":[0.1875,0.375,0.5],"min":[-0.1875,0.1875,0.3125],"type":"VEC3"},{"bufferView":9,"componentType":5126,"count":18,"max":[1,0.7071067690849304,0.7071067690849304],"min":[-1,-1,-1],"type":"VEC3"},{"bufferView":10,"componentType":5126,"count":18,"max":[0.515625,0.515625],"min":[0,0.125],"type":"VEC2"},{"bufferView":11,"componentType":5123,"count":24,"max":[17],"min":[0],"type":"SCALAR"},{"bufferView":12,"componentType":5126,"count":18,"max":[0.1875,0.375,0.25],"min":[-0.1875,0.1875,0.0625],"type":"VEC3"},{"bufferView":13,"componentType":5126,"count":18,"max":[1,0.7071067690849304,0.7071067690849304],"min":[-1,-1,-1],"type":"VEC3"},{"bufferView":14,"componentType":5126,"count":18,"max":[0.515625,0.53125],"min":[0.109375,0.1875],"type":"VEC2"},{"bufferView":15,"componentType":5123,"count":24,"max":[17],"min":[0],"type":"SCALAR"},{"bufferView":16,"componentType":5126,"count":200,"max":[0.125,-0.1875,0.4375],"min":[-0.125,-0.25,0.1875],"type":"VEC3"},{"bufferView":17,"componentType":5126,"count":200,"max":[1,1,1],"min":[-1,-1,-1],"type":"VEC3"},{"bufferView":18,"componentType":5126,"count":200,"max":[0.5716249942779541,0.53125],"min":[0.21875,0],"type":"VEC2"},{"bufferView":19,"componentType":5123,"count":240,"max":[199],"min":[0],"type":"SCALAR"},{"bufferView":20,"componentType":5126,"count":200,"max":[0.125,0.25,0.4375],"min":[-0.125,0.1875,0.1875],"type":"VEC3"},{"bufferView":21,"componentType":5126,"count":200,"max":[1,1,1],"min":[-1,-1,-1],"type":"VEC3"},{"bufferView":22,"componentType":5126,"count":200,"max":[0.5872484445571899,0.5],"min":[0.375,0.03125],"type":"VEC2"},{"bufferView":23,"componentType":5123,"count":240,"max":[199],"min":[0],"type":"SCALAR"},{"bufferView":24,"componentType":5126,"count":200,"max":[0.125,-0.1875,0.4375],"min":[-0.125,-0.25,0.1875],"type":"VEC3"},{"bufferView":25,"componentType":5126,"count":200,"max":[1,1,1],"min":[-1,-1,-1],"type":"VEC3"},{"bufferView":26,"componentType":5126,"count":200,"max":[0.5872484445571899,0.53125],"min":[0,0.09375],"type":"VEC2"},{"bufferView":27,"componentType":5123,"count":240,"max":[199],"min":[0],"type":"SCALAR"},{"bufferView":28,"componentType":5126,"count":200,"max":[0.125,0.25,0.4375],"min":[-0.125,0.1875,0.1875],"type":"VEC3"},{"bufferView":29,"componentType":5126,"count":200,"max":[1,1,1],"min":[-1,-1,-1],"type":"VEC3"},{"bufferView":30,"componentType":5126,"count":200,"max":[0.5872484445571899,0.5625],"min":[0.006501562427729368,0.125],"type":"VEC2"},{"bufferView":31,"componentType":5123,"count":240,"max":[199],"min":[0],"type":"SCALAR"}],"materials":[{"pbrMetallicRoughness":{"metallicFactor":0,"roughnessFactor":1,"baseColorTexture":{"index":0}},"alphaMode":"MASK","alphaCutoff":0.05,"doubleSided":true}],"textures":[{"sampler":0,"source":0,"name":"texture_car"}],"samplers":[{"magFilter":9728,"minFilter":9728,"wrapS":33071,"wrapT":33071}],"images":[{"mimeType":"image/png","uri":"data:image/png;base64,"}],"meshes":[{"primitives":[{"mode":4,"attributes":{"POSITION":0,"NORMAL":1,"TEXCOORD_0":2},"indices":3,"material":0}]},{"primitives":[{"mode":4,"attributes":{"POSITION":4,"NORMAL":5,"TEXCOORD_0":6},"indices":7,"material":0}]},{"primitives":[{"mode":4,"attributes":{"POSITION":8,"NORMAL":9,"TEXCOORD_0":10},"indices":11,"material":0}]},{"primitives":[{"mode":4,"attributes":{"POSITION":12,"NORMAL":13,"TEXCOORD_0":14},"indices":15,"material":0}]},{"primitives":[{"mode":4,"attributes":{"POSITION":16,"NORMAL":17,"TEXCOORD_0":18},"indices":19,"material":0}]},{"primitives":[{"mode":4,"attributes":{"POSITION":20,"NORMAL":21,"TEXCOORD_0":22},"indices":23,"material":0}]},{"primitives":[{"mode":4,"attributes":{"POSITION":24,"NORMAL":25,"TEXCOORD_0":26},"indices":27,"material":0}]},{"primitives":[{"mode":4,"attributes":{"POSITION":28,"NORMAL":29,"TEXCOORD_0":30},"indices":31,"material":0}]}]}