{"asset":{"version":"2.0","generator":"Blockbench 4.7.4 glTF exporter"},"scenes":[{"nodes":[8],"name":"blockbench_export"}],"scene":0,"nodes":[{"name":"cube-col","mesh":0},{"name":"torus","mesh":1},{"name":"pyramid","mesh":2},{"name":"pyramid","mesh":3},{"rotation":[-0.3007057995042731,0,0,0.9537169507482269],"translation":[-1.125,1.25,-0.625],"name":"plane-col","mesh":4},{"rotation":[0.7071067811865475,0,0,0.7071067811865476],"translation":[-0.3125,2.0625,0],"name":"torus-col","mesh":5},{"rotation":[0.7071067811865475,0,0,0.7071067811865476],"translation":[-1,1.5,0],"name":"torus","mesh":6},{"name":"sphere-col","mesh":7},{"children":[0,1,2,3,4,5,6,7]}],"bufferViews":[{"buffer":0,"byteOffset":0,"byteLength":288,"target":34962,"byteStride":12},{"buffer":0,"byteOffset":288,"byteLength":288,"target":34962,"byteStride":12},{"buffer":0,"byteOffset":576,"byteLength":192,"target":34962,"byteStride":8},{"buffer":0,"byteOffset":768,"byteLength":72,"target":34963},{"buffer":0,"byteOffset":840,"byteLength":4608,"target":34962,"byteStride":12},{"buffer":0,"byteOffset":5448,"byteLength":4608,"target":34962,"byteStride":12},{"buffer":0,"byteOffset":10056,"byteLength":3072,"target":34962,"byteStride":8},{"buffer":0,"byteOffset":13128,"byteLength":1152,"target":34963},{"buffer":0,"byteOffset":14280,"byteLength":192,"target":34962,"byteStride":12},{"buffer":0,"byteOffset":14472,"byteLength":192,"target":34962,"byteStride":12},{"buffer":0,"byteOffset":14664,"byteLength":128,"target":34962,"byteStride":8},{"buffer":0,"byteOffset":14792,"byteLength":36,"target":34963},{"buffer":0,"byteOffset":14828,"byteLength":192,"target":34962,"byteStride":12},{"buffer":0,"byteOffset":15020,"byteLength":192,"target":34962,"byteStride":12},{"buffer":0,"byteOffset":15212,"byteLength":128,"target":34962,"byteStride":8},{"buffer":0,"byteOffset":15340,"byteLength":36,"target":34963},{"buffer":0,"byteOffset":15376,"byteLength":48,"target":34962,"byteStride":12},{"buffer":0,"byteOffset":15424,"byteLength":48,"target":34962,"byteStride":12},{"buffer":0,"byteOffset":15472,"byteLength":32,"target":34962,"byteStride":8},{"buffer":0,"byteOffset":15504,"byteLength":12,"target":34963},{"buffer":0,"byteOffset":15516,"byteLength":4608,"target":34962,"byteStride":12},{"buffer":0,"byteOffset":20124,"byteLength":4608,"target":34962,"byteStride":12},{"buffer":0,"byteOffset":24732,"byteLength":3072,"target":34962,"byteStride":8},{"buffer":0,"byteOffset":27804,"byteLength":1152,"target":34963},{"buffer":0,"byteOffset":28956,"byteLength":4608,"target":34962,"byteStride":12},{"buffer":0,"byteOffset":33564,"byteLength":4608,"target":34962,"byteStride":12},{"buffer":0,"byteOffset":38172,"byteLength":3072,"target":34962,"byteStride":8},{"buffer":0,"byteOffset":41244,"byteLength":1152,"target":34963},{"buffer":0,"byteOffset":42396,"byteLength":3168,"target":34962,"byteStride":12},{"buffer":0,"byteOffset":45564,"byteLength":3168,"target":34962,"byteStride":12},{"buffer":0,"byteOffset":48732,"byteLength":2112,"target":34962,"byteStride":8},{"buffer":0,"byteOffset":50844,"byteLength":720,"target":34963}],"buffers":[{"byteLength":51564,"uri":"data:application/octet-stream;base64,"}],"accessors":[{"bufferView":0,"componentType":5126,"count":24,"max":[0.5,0.5,0.5],"min":[-0.5,0,-0.5],"type":"VEC3"},{"bufferView":1,"componentType":5126,"count":24,"max":[1,1,1],"min":[-1,-1,-1],"type":"VEC3"},{"bufferView":2,"componentType":5126,"count":24,"max":[0.6484375,0.59375],"min":[0,0],"type":"VEC2"},{"bufferView":3,"componentType":5123,"count":36,"max":[23],"min":[0],"type":"SCALAR"},{"bufferView":4,"componentType":5126,"count":384,"max":[0.625,0.129409521818161,1.8125],"min":[-0.625,-0.129409521818161,0.5625],"type":"VEC3"},{"bufferView":5,"componentType":5126,"count":384,"max":[0.9284448027610779,0.919060468673706,0.9284448027610779],"min":[-0.9284448027610779,-0.919060468673706,-0.9284448027610779],"type":"VEC3"},{"bufferView":6,"componentType":5126,"count":384,"max":[0.8583329916000366,0.71875],"min":[0.00038877842598594725,0],"type":"VEC2"},{"bufferView":7,"componentType":5123,"count":576,"max":[383],"min":[0],"type":"SCALAR"},{"bufferView":8,"componentType":5126,"count":16,"max":[0,0.5,0],"min":[-1,0,-1],"type":"VEC3"},{"bufferView":9,"componentType":5126,"count":16,"max":[0.7071067690849304,0.7071067690849304,0.7071067690849304],"min":[-0.7071067690849304,-1,-0.7071067690849304],"type":"VEC3"},{"bufferView":10,"componentType":5126,"count":16,"max":[0.5625,0.5180758237838745],"min":[0.2265625,0],"type":"VEC2"},{"bufferView":11,"componentType":5123,"count":18,"max":[15],"min":[0],"type":"SCALAR"},{"bufferView":12,"componentType":5126,"count":16,"max":[1,0.5,0],"min":[0,0,-1],"type":"VEC3"},{"bufferView":13,"componentType":5126,"count":16,"max":[0.7071067690849304,0.7071067690849304,0.7071067690849304],"min":[-0.7071067690849304,-1,-0.7071067690849304],"type":"VEC3"},{"bufferView":14,"componentType":5126,"count":16,"max":[0.6171875,0.5649508237838745],"min":[0.0859375,0.0859375],"type":"VEC2"},{"bufferView":15,"componentType":5123,"count":18,"max":[15],"min":[0],"type":"SCALAR"},{"bufferView":16,"componentType":5126,"count":4,"max":[1.625,-0.6875,-0.3125],"min":[0.625,-0.6875,-1.3125],"type":"VEC3"},{"bufferView":17,"componentType":5126,"count":4,"max":[0,1,0],"min":[0,1,0],"type":"VEC3"},{"bufferView":18,"componentType":5126,"count":4,"max":[0.4296875,0.4296875],"min":[0.3046875,0.3046875],"type":"VEC2"},{"bufferView":19,"componentType":5123,"count":6,"max":[3],"min":[0],"type":"SCALAR"},{"bufferView":20,"componentType":5126,"count":384,"max":[0.625,0.129409521818161,1.8125],"min":[-0.625,-0.129409521818161,0.5625],"type":"VEC3"},{"bufferView":21,"componentType":5126,"count":384,"max":[0.9284448027610779,0.919060468673706,0.9284448027610779],"min":[-0.9284448027610779,-0.919060468673706,-0.9284448027610779],"type":"VEC3"},{"bufferView":22,"componentType":5126,"count":384,"max":[0.8583329916000366,0.71875],"min":[0.00038877842598594725,0],"type":"VEC2"},{"bufferView":23,"componentType":5123,"count":576,"max":[383],"min":[0],"type":"SCALAR"},{"bufferView":24,"componentType":5126,"count":384,"max":[0.625,0.129409521818161,1.8125],"min":[-0.625,-0.129409521818161,0.5625],"type":"VEC3"},{"bufferView":25,"componentType":5126,"count":384,"max":[0.9284448027610779,0.919060468673706,0.9284448027610779],"min":[-0.9284448027610779,-0.919060468673706,-0.9284448027610779],"type":"VEC3"},{"bufferView":26,"componentType":5126,"count":384,"max":[0.6869789958000183,0.5953974723815918],"min":[0.00019438921299297363,0],"type":"VEC2"},{"bufferView":27,"componentType":5123,"count":576,"max":[383],"min":[0],"type":"SCALAR"},{"bufferView":28,"componentType":5126,"count":264,"max":[1.375,1.1875,-0.5],"min":[0.2455127090215683,0.1875,-1.5580127239227295],"type":"VEC3"},{"bufferView":29,"componentType":5126,"count":264,"max":[0.9659258127212524,0.9659258127212524,0.9659258127212524],"min":[-0.9659258127212524,-0.9659258127212524,-0.9659258127212524],"type":"VEC3"},{"bufferView":30,"componentType":5126,"count":264,"max":[0.7739229202270508,0.625],"min":[0.003024271922186017,0],"type":"VEC2"},{"bufferView":31,"componentType":5123,"count":360,"max":[263],"min":[0],"type":"SCALAR"}],"materials":[{"pbrMetallicRoughness":{"metallicFactor":0,"roughnessFactor":1,"baseColorTexture":{"index":0}},"alphaMode":"MASK","alphaCutoff":0.05,"doubleSided":true},{"pbrMetallicRoughness":{"metallicFactor":0,"roughnessFactor":1,"baseColorTexture":{"index":1}},"alphaMode":"MASK","alphaCutoff":0.05,"doubleSided":true},{"pbrMetallicRoughness":{"metallicFactor":0,"roughnessFactor":1,"baseColorTexture":{"index":2}},"alphaMode":"MASK","alphaCutoff":0.05,"doubleSided":true},{"pbrMetallicRoughness":{"metallicFactor":0,"roughnessFactor":1,"baseColorTexture":{"index":3}},"alphaMode":"MASK","alphaCutoff":0.05,"doubleSided":true}],"textures":[{"sampler":0,"source":0,"name":"texture"},{"sampler":1,"source":1,"name":"texture"},{"sampler":2,"source":2,"name":"texture"},{"sampler":3,"source":3,"name":"texturesphere"}],"samplers":[{"magFilter":9728,"minFilter":9728,"wrapS":33071,"wrapT":33071},{"magFilter":9728,"minFilter":9728,"wrapS":33071,"wrapT":33071},{"magFilter":9728,"minFilter":9728,"wrapS":33071,"wrapT":33071},{"magFilter":9728,"minFilter":9728,"wrapS":33071,"wrapT":33071}],"images":[{"mimeType":"image/png","uri":"data:image/png;base64,"},{"mimeType":"image/png","uri":"data:image/png;base64,"},{"mimeType":"image/png","uri":"data:image/png;base64,"},{"mimeType":"image/png","uri":"data:image/png;base64,"}],"meshes":[{"primitives":[{"mode":4,"attributes":{"POSITION":0,"NORMAL":1,"TEXCOORD_0":2},"indices":3,"material":0}]},{"primitives":[{"mode":4,"attributes":{"POSITION":4,"NORMAL":5,"TEXCOORD_0":6},"indices":7,"material":1}]},{"primitives":[{"mode":4,"attributes":{"POSITION":8,"NORMAL":9,"TEXCOORD_0":10},"indices":11,"material":0}]},{"primitives":[{"mode":4,"attributes":{"POSITION":12,"NORMAL":13,"TEXCOORD_0":14},"indices":15,"material":0}]},{"primitives":[{"mode":4,"attributes":{"POSITION":16,"NORMAL":17,"TEXCOORD_0":18},"indices":19,"material":0}]},{"primitives":[{"mode":4,"attributes":{"POSITION":20,"NORMAL":21,"TEXCOORD_0":22},"indices":23,"material":2}]},{"primitives":[{"mode":4,"attributes":{"POSITION":24,"NORMAL":25,"TEXCOORD_0":26},"indices":27,"material":0}]},{"primitives":[{"mode":4,"attributes":{"POSITION":28,"NORMAL":29,"TEXCOORD_0":30},"indices":31,"material":3}]}]}