{"asset":{"version":"2.0","generator":"Blockbench 4.7.4 glTF exporter"},"scenes":[{"nodes":[19],"name":"blockbench_export"}],"scene":0,"nodes":[{"translation":[0,-0.9375,0],"name":"pyramid-col","mesh":0},{"translation":[0,-0.875,0],"name":"cylinder-col","mesh":1},{"translation":[0,0,-0.1875],"name":"LeftLeg","children":[0,1]},{"translation":[0,-0.9375,0],"name":"pyramid-col","mesh":2},{"translation":[0,-0.875,0],"name":"cylinder-col","mesh":3},{"translation":[0,0,0.1875],"name":"RightLeg","children":[3,4]},{"rotation":[0.5913096483635824,0,0,0.8064446042674827],"translation":[0.0625,-0.75,0.8125],"name":"pyramid-col","mesh":4},{"name":"RightWing","children":[6]},{"rotation":[-0.5913096483635824,0,0,0.8064446042674827],"translation":[0.0625,-0.75,-0.8125],"name":"pyramid-col","mesh":5},{"name":"LeftWing","children":[8]},{"rotation":[0,0,-0.9469301294951066,0.321439465303159],"translation":[0.6875,0.875,0],"name":"pyramid-col","mesh":6},{"name":"Beak","children":[10]},{"translation":[0.75,0.875,-0.125],"name":"lefteye-col","mesh":7},{"translation":[0.75,0.875,0.125],"name":"righteye-col","mesh":8},{"name":"eyes","children":[12,13]},{"name":"sphere-col","mesh":9},{"name":"Head","children":[11,14,15]},{"name":"sphere-col","mesh":10},{"name":"Body","children":[7,9,16,17]},{"children":[2,5,18]}],"bufferViews":[{"buffer":0,"byteOffset":0,"byteLength":192,"target":34962,"byteStride":12},{"buffer":0,"byteOffset":192,"byteLength":192,"target":34962,"byteStride":12},{"buffer":0,"byteOffset":384,"byteLength":128,"target":34962,"byteStride":8},{"buffer":0,"byteOffset":512,"byteLength":36,"target":34963},{"buffer":0,"byteOffset":548,"byteLength":720,"target":34962,"byteStride":12},{"buffer":0,"byteOffset":1268,"byteLength":720,"target":34962,"byteStride":12},{"buffer":0,"byteOffset":1988,"byteLength":480,"target":34962,"byteStride":8},{"buffer":0,"byteOffset":2468,"byteLength":144,"target":34963},{"buffer":0,"byteOffset":2612,"byteLength":192,"target":34962,"byteStride":12},{"buffer":0,"byteOffset":2804,"byteLength":192,"target":34962,"byteStride":12},{"buffer":0,"byteOffset":2996,"byteLength":128,"target":34962,"byteStride":8},{"buffer":0,"byteOffset":3124,"byteLength":36,"target":34963},{"buffer":0,"byteOffset":3160,"byteLength":720,"target":34962,"byteStride":12},{"buffer":0,"byteOffset":3880,"byteLength":720,"target":34962,"byteStride":12},{"buffer":0,"byteOffset":4600,"byteLength":480,"target":34962,"byteStride":8},{"buffer":0,"byteOffset":5080,"byteLength":144,"target":34963},{"buffer":0,"byteOffset":5224,"byteLength":192,"target":34962,"byteStride":12},{"buffer":0,"byteOffset":5416,"byteLength":192,"target":34962,"byteStride":12},{"buffer":0,"byteOffset":5608,"byteLength":128,"target":34962,"byteStride":8},{"buffer":0,"byteOffset":5736,"byteLength":36,"target":34963},{"buffer":0,"byteOffset":5772,"byteLength":192,"target":34962,"byteStride":12},{"buffer":0,"byteOffset":5964,"byteLength":192,"target":34962,"byteStride":12},{"buffer":0,"byteOffset":6156,"byteLength":128,"target":34962,"byteStride":8},{"buffer":0,"byteOffset":6284,"byteLength":36,"target":34963},{"buffer":0,"byteOffset":6320,"byteLength":192,"target":34962,"byteStride":12},{"buffer":0,"byteOffset":6512,"byteLength":192,"target":34962,"byteStride":12},{"buffer":0,"byteOffset":6704,"byteLength":128,"target":34962,"byteStride":8},{"buffer":0,"byteOffset":6832,"byteLength":36,"target":34963},{"buffer":0,"byteOffset":6868,"byteLength":13248,"target":34962,"byteStride":12},{"buffer":0,"byteOffset":20116,"byteLength":13248,"target":34962,"byteStride":12},{"buffer":0,"byteOffset":33364,"byteLength":8832,"target":34962,"byteStride":8},{"buffer":0,"byteOffset":42196,"byteLength":3168,"target":34963},{"buffer":0,"byteOffset":45364,"byteLength":13248,"target":34962,"byteStride":12},{"buffer":0,"byteOffset":58612,"byteLength":13248,"target":34962,"byteStride":12},{"buffer":0,"byteOffset":71860,"byteLength":8832,"target":34962,"byteStride":8},{"buffer":0,"byteOffset":80692,"byteLength":3168,"target":34963},{"buffer":0,"byteOffset":83860,"byteLength":3168,"target":34962,"byteStride":12},{"buffer":0,"byteOffset":87028,"byteLength":3168,"target":34962,"byteStride":12},{"buffer":0,"byteOffset":90196,"byteLength":2112,"target":34962,"byteStride":8},{"buffer":0,"byteOffset":92308,"byteLength":720,"target":34963},{"buffer":0,"byteOffset":93028,"byteLength":13248,"target":34962,"byteStride":12},{"buffer":0,"byteOffset":106276,"byteLength":13248,"target":34962,"byteStride":12},{"buffer":0,"byteOffset":119524,"byteLength":8832,"target":34962,"byteStride":8},{"buffer":0,"byteOffset":128356,"byteLength":3168,"target":34963},{"buffer":0,"byteOffset":131524,"byteLength":12},{"buffer":0,"byteOffset":131536,"byteLength":48},{"buffer":0,"byteOffset":131584,"byteLength":20},{"buffer":0,"byteOffset":131604,"byteLength":80},{"buffer":0,"byteOffset":131684,"byteLength":12},{"buffer":0,"byteOffset":131696,"byteLength":48},{"buffer":0,"byteOffset":131744,"byteLength":12},{"buffer":0,"byteOffset":131756,"byteLength":36},{"buffer":0,"byteOffset":131792,"byteLength":12},{"buffer":0,"byteOffset":131804,"byteLength":48},{"buffer":0,"byteOffset":131852,"byteLength":12},{"buffer":0,"byteOffset":131864,"byteLength":36},{"buffer":0,"byteOffset":131900,"byteLength":16},{"buffer":0,"byteOffset":131916,"byteLength":48},{"buffer":0,"byteOffset":131964,"byteLength":12},{"buffer":0,"byteOffset":131976,"byteLength":48},{"buffer":0,"byteOffset":132024,"byteLength":16},{"buffer":0,"byteOffset":132040,"byteLength":48}],"buffers":[{"byteLength":132088,"uri":"data:application/octet-stream;base64,"}],"accessors":[{"bufferView":0,"componentType":5126,"count":16,"max":[0.375,0.125,0.125],"min":[-0.125,0,-0.125],"type":"VEC3"},{"bufferView":1,"componentType":5126,"count":16,"max":[0.3162277638912201,0.9486833214759827,0.749268651008606],"min":[-0.7071067690849304,-1,-0.749268651008606],"type":"VEC3"},{"bufferView":2,"componentType":5126,"count":16,"max":[0.5625,0.53125],"min":[0.0808190330862999,0.265625],"type":"VEC2"},{"bufferView":3,"componentType":5123,"count":18,"max":[15],"min":[0],"type":"SCALAR"},{"bufferView":4,"componentType":5126,"count":60,"max":[0.08183756470680237,1,0.0625],"min":[-0.08183756470680237,0,-0.0625],"type":"VEC3"},{"bufferView":5,"componentType":5126,"count":60,"max":[0.8366420865058899,1,1],"min":[-0.8366420865058899,-1,-1],"type":"VEC3"},{"bufferView":6,"componentType":5126,"count":60,"max":[0.5453859567642212,0.5703125],"min":[0,0.0859375],"type":"VEC2"},{"bufferView":7,"componentType":5123,"count":72,"max":[59],"min":[0],"type":"SCALAR"},{"bufferView":8,"componentType":5126,"count":16,"max":[0.375,0.125,0.125],"min":[-0.125,0,-0.125],"type":"VEC3"},{"bufferView":9,"componentType":5126,"count":16,"max":[0.3162277638912201,0.9486833214759827,0.749268651008606],"min":[-0.7071067690849304,-1,-0.749268651008606],"type":"VEC3"},{"bufferView":10,"componentType":5126,"count":16,"max":[0.5598059892654419,0.48752474784851074],"min":[0.00732656242325902,0],"type":"VEC2"},{"bufferView":11,"componentType":5123,"count":18,"max":[15],"min":[0],"type":"SCALAR"},{"bufferView":12,"componentType":5126,"count":60,"max":[0.08183756470680237,1,0.0625],"min":[-0.08183756470680237,0,-0.0625],"type":"VEC3"},{"bufferView":13,"componentType":5126,"count":60,"max":[0.8366420865058899,1,1],"min":[-0.8366420865058899,-1,-1],"type":"VEC3"},{"bufferView":14,"componentType":5126,"count":60,"max":[0.5453859567642212,0.5546875],"min":[0.34375,0.0625],"type":"VEC2"},{"bufferView":15,"componentType":5123,"count":72,"max":[59],"min":[0],"type":"SCALAR"},{"bufferView":16,"componentType":5126,"count":16,"max":[0.3125,0.25,-0.6875],"min":[-0.3125,0,-1.3125],"type":"VEC3"},{"bufferView":17,"componentType":5126,"count":16,"max":[0.4326951801776886,0.9284766912460327,0.7489965558052063],"min":[-0.6246950030326843,-1,-0.3713906705379486],"type":"VEC3"},{"bufferView":18,"componentType":5126,"count":16,"max":[0.5698215961456299,0.42789310216903687],"min":[0,0.15625],"type":"VEC2"},{"bufferView":19,"componentType":5123,"count":18,"max":[15],"min":[0],"type":"SCALAR"},{"bufferView":20,"componentType":5126,"count":16,"max":[0.3125,0.25,1.3125],"min":[-0.3125,0,0.6875],"type":"VEC3"},{"bufferView":21,"componentType":5126,"count":16,"max":[0.4326951801776886,0.9284766912460327,0.3713906705379486],"min":[-0.6246950030326843,-1,-0.7489965558052063],"type":"VEC3"},{"bufferView":22,"componentType":5126,"count":16,"max":[0.5234375,0.5380806922912598],"min":[0.0017730843974277377,0.22390234470367432],"type":"VEC2"},{"bufferView":23,"componentType":5123,"count":18,"max":[15],"min":[0],"type":"SCALAR"},{"bufferView":24,"componentType":5126,"count":16,"max":[0.2928437292575836,1.2343088388442993,0.09375],"min":[-0.09375,0,-0.09375],"type":"VEC3"},{"bufferView":25,"componentType":5126,"count":16,"max":[0.98723965883255,0.29888927936553955,0.9971279501914978],"min":[-0.9542878270149231,-1,-0.9971279501914978],"type":"VEC3"},{"bufferView":26,"componentType":5126,"count":16,"max":[0.6005828976631165,0.5859375],"min":[0,0],"type":"VEC2"},{"bufferView":27,"componentType":5123,"count":18,"max":[15],"min":[0],"type":"SCALAR"},{"bufferView":28,"componentType":5126,"count":1104,"max":[0.09375,0.09375,0.09375],"min":[-0.09375,-0.09375,-0.09375],"type":"VEC3"},{"bufferView":29,"componentType":5126,"count":1104,"max":[0.9914448857307434,0.9914448857307434,0.9914448857307434],"min":[-0.9914448857307434,-0.9914448857307434,-0.9914448857307434],"type":"VEC3"},{"bufferView":30,"componentType":5126,"count":1104,"max":[0.5537434816360474,0.5546875],"min":[0,0],"type":"VEC2"},{"bufferView":31,"componentType":5123,"count":1584,"max":[1103],"min":[0],"type":"SCALAR"},{"bufferView":32,"componentType":5126,"count":1104,"max":[0.09375,0.09375,0.09375],"min":[-0.09375,-0.09375,-0.09375],"type":"VEC3"},{"bufferView":33,"componentType":5126,"count":1104,"max":[0.9914448857307434,0.9914448857307434,0.9914448857307434],"min":[-0.9914448857307434,-0.9914448857307434,-0.9914448857307434],"type":"VEC3"},{"bufferView":34,"componentType":5126,"count":1104,"max":[0.5537434816360474,0.5546875],"min":[0,0.00030934810638427734],"type":"VEC2"},{"bufferView":35,"componentType":5123,"count":1584,"max":[1103],"min":[0],"type":"SCALAR"},{"bufferView":36,"componentType":5126,"count":264,"max":[0.8125,1.1875,0.375],"min":[0.0625,0.4375,-0.375],"type":"VEC3"},{"bufferView":37,"componentType":5126,"count":264,"max":[0.9659258127212524,0.9659258127212524,0.9659258127212524],"min":[-0.9659258127212524,-0.9659258127212524,-0.9659258127212524],"type":"VEC3"},{"bufferView":38,"componentType":5126,"count":264,"max":[0.550962507724762,0.496803343296051],"min":[0.08197101205587387,0.01727592945098877],"type":"VEC2"},{"bufferView":39,"componentType":5123,"count":360,"max":[263],"min":[0],"type":"SCALAR"},{"bufferView":40,"componentType":5126,"count":1104,"max":[0.75,0.75,0.625],"min":[-0.75,-0.5625,-0.625],"type":"VEC3"},{"bufferView":41,"componentType":5126,"count":1104,"max":[0.9888695478439331,0.9934302568435669,0.992231011390686],"min":[-0.9888695478439331,-0.9934302568435669,-0.992231011390686],"type":"VEC3"},{"bufferView":42,"componentType":5126,"count":1104,"max":[0.5172749757766724,0.5234375],"min":[0,0],"type":"VEC2"},{"bufferView":43,"componentType":5123,"count":1584,"max":[1103],"min":[0],"type":"SCALAR"},{"bufferView":44,"componentType":5126,"count":3,"max":[3],"min":[0],"type":"SCALAR"},{"bufferView":45,"componentType":5126,"count":3,"max":[0.10886687785387039,0,0,1],"min":[0,0,0,0.9940563440322876],"type":"VEC4"},{"bufferView":46,"componentType":5126,"count":5,"max":[3],"min":[0],"type":"SCALAR"},{"bufferView":47,"componentType":5126,"count":5,"max":[0,0.3315010070800781,0,1],"min":[-0.20226304233074188,-0.25783416628837585,-0.15315531194210052,0.9368352890014648],"type":"VEC4"},{"bufferView":48,"componentType":5126,"count":3,"max":[3],"min":[0],"type":"SCALAR"},{"bufferView":49,"componentType":5126,"count":3,"max":[0,0,0,1],"min":[-0.08715574443340302,0,0,0.9961947202682495],"type":"VEC4"},{"bufferView":50,"componentType":5126,"count":3,"max":[2],"min":[0],"type":"SCALAR"},{"bufferView":51,"componentType":5126,"count":3,"max":[0,0.125,0],"min":[0,0,0],"type":"VEC3"},{"bufferView":52,"componentType":5126,"count":3,"max":[2],"min":[0],"type":"SCALAR"},{"bufferView":53,"componentType":5126,"count":3,"max":[0.13052618503570557,0,0,1],"min":[0,0,0,0.9914448857307434],"type":"VEC4"},{"bufferView":54,"componentType":5126,"count":3,"max":[2],"min":[0],"type":"SCALAR"},{"bufferView":55,"componentType":5126,"count":3,"max":[0,0,0],"min":[0,-0.125,0],"type":"VEC3"},{"bufferView":56,"componentType":5126,"count":4,"max":[2],"min":[0],"type":"SCALAR"},{"bufferView":57,"componentType":5126,"count":4,"max":[0,0.1875,0.1875],"min":[0,0,0.1875],"type":"VEC3"},{"bufferView":58,"componentType":5126,"count":3,"max":[2],"min":[0],"type":"SCALAR"},{"bufferView":59,"componentType":5126,"count":3,"max":[0,0,0,1],"min":[-0.1736481785774231,0,0,0.9848077297210693],"type":"VEC4"},{"bufferView":60,"componentType":5126,"count":4,"max":[2],"min":[0],"type":"SCALAR"},{"bufferView":61,"componentType":5126,"count":4,"max":[0,0.3125,-0.1875],"min":[0,0,-0.1875],"type":"VEC3"}],"materials":[{"pbrMetallicRoughness":{"metallicFactor":0,"roughnessFactor":1,"baseColorTexture":{"index":0}},"alphaMode":"MASK","alphaCutoff":0.05,"doubleSided":true}],"textures":[{"sampler":0,"source":0,"name":"texture-kiwi.png"}],"samplers":[{"magFilter":9728,"minFilter":9728,"wrapS":33071,"wrapT":33071}],"images":[{"mimeType":"image/png","uri":"data:image/png;base64,"}],"meshes":[{"primitives":[{"mode":4,"attributes":{"POSITION":0,"NORMAL":1,"TEXCOORD_0":2},"indices":3,"material":0}]},{"primitives":[{"mode":4,"attributes":{"POSITION":4,"NORMAL":5,"TEXCOORD_0":6},"indices":7,"material":0}]},{"primitives":[{"mode":4,"attributes":{"POSITION":8,"NORMAL":9,"TEXCOORD_0":10},"indices":11,"material":0}]},{"primitives":[{"mode":4,"attributes":{"POSITION":12,"NORMAL":13,"TEXCOORD_0":14},"indices":15,"material":0}]},{"primitives":[{"mode":4,"attributes":{"POSITION":16,"NORMAL":17,"TEXCOORD_0":18},"indices":19,"material":0}]},{"primitives":[{"mode":4,"attributes":{"POSITION":20,"NORMAL":21,"TEXCOORD_0":22},"indices":23,"material":0}]},{"primitives":[{"mode":4,"attributes":{"POSITION":24,"NORMAL":25,"TEXCOORD_0":26},"indices":27,"material":0}]},{"primitives":[{"mode":4,"attributes":{"POSITION":28,"NORMAL":29,"TEXCOORD_0":30},"indices":31,"material":0}]},{"primitives":[{"mode":4,"attributes":{"POSITION":32,"NORMAL":33,"TEXCOORD_0":34},"indices":35,"material":0}]},{"primitives":[{"mode":4,"attributes":{"POSITION":36,"NORMAL":37,"TEXCOORD_0":38},"indices":39,"material":0}]},{"primitives":[{"mode":4,"attributes":{"POSITION":40,"NORMAL":41,"TEXCOORD_0":42},"indices":43,"material":0}]}],"animations":[{"name":"animation.model.idle","samplers":[{"input":44,"output":45,"interpolation":"LINEAR"},{"input":46,"output":47,"interpolation":"LINEAR"},{"input":48,"output":49,"interpolation":"LINEAR"}],"channels":[{"sampler":0,"target":{"node":7,"path":"rotation"}},{"sampler":1,"target":{"node":16,"path":"rotation"}},{"sampler":2,"target":{"node":9,"path":"rotation"}}]},{"name":"animation.model.walk","samplers":[{"input":50,"output":51,"interpolation":"LINEAR"},{"input":52,"output":53,"interpolation":"LINEAR"},{"input":54,"output":55,"interpolation":"LINEAR"},{"input":56,"output":57,"interpolation":"LINEAR"},{"input":58,"output":59,"interpolation":"LINEAR"},{"input":60,"output":61,"interpolation":"LINEAR"}],"channels":[{"sampler":0,"target":{"node":18,"path":"translation"}},{"sampler":1,"target":{"node":7,"path":"rotation"}},{"sampler":2,"target":{"node":16,"path":"translation"}},{"sampler":3,"target":{"node":5,"path":"translation"}},{"sampler":4,"target":{"node":9,"path":"rotation"}},{"sampler":5,"target":{"node":2,"path":"translation"}}]}]}